<svg width="43" height="43" viewBox="0 0 55 54" fill="none" xmlns="http://www.w3.org/2000/svg">
<path d="M27.5 4.8645C34.8425 4.8645 35.7133 4.8915 38.6123 5.022C41.6098 5.157 44.6967 5.8275 46.8806 7.97175C49.0852 10.1362 49.7475 13.1377 49.885 16.0898C50.0179 18.936 50.0454 19.791 50.0454 27C50.0454 34.209 50.0179 35.064 49.885 37.9103C49.7498 40.8375 49.0508 43.8975 46.8806 46.0283C44.676 48.1928 41.6213 48.843 38.6123 48.978C35.7133 49.1085 34.8425 49.1355 27.5 49.1355C20.1575 49.1355 19.2867 49.1085 16.3877 48.978C13.4292 48.8452 10.2713 48.1433 8.11938 46.0283C5.92625 43.875 5.2525 40.8443 5.115 37.9103C4.98208 35.064 4.95458 34.209 4.95458 27C4.95458 19.791 4.98208 18.936 5.115 16.0898C5.25021 13.1737 5.95604 10.0957 8.11938 7.97175C10.3194 5.81175 13.3879 5.157 16.3877 5.022C19.2867 4.8915 20.1575 4.8645 27.5 4.8645ZM27.5 0C20.0315 0 19.0942 0.0315 16.1608 0.162C11.9098 0.35325 7.68854 1.51425 4.61542 4.5315C1.53083 7.56 0.359792 11.6955 0.165 15.867C0.0320833 18.747 0 19.6672 0 27C0 34.3327 0.0320833 35.253 0.165 38.133C0.359792 42.3022 1.54688 46.458 4.61542 49.4685C7.69771 52.4948 11.9167 53.6467 16.1608 53.838C19.0942 53.9685 20.0315 54 27.5 54C34.9685 54 35.9058 53.9685 38.8392 53.838C43.0879 53.6467 47.3138 52.4835 50.3846 49.4685C53.4715 46.4378 54.6402 42.3045 54.835 38.133C54.9679 35.253 55 34.3327 55 27C55 19.6672 54.9679 18.747 54.835 15.867C54.6402 11.6932 53.4554 7.5465 50.3846 4.5315C47.3069 1.50975 43.0765 0.351 38.8392 0.162C35.9058 0.0315 34.9685 0 27.5 0Z" fill="#372E24"/>
<path d="M27.5021 13.1355C19.7036 13.1355 13.3809 19.3432 13.3809 27C13.3809 34.6568 19.7036 40.8645 27.5021 40.8645C35.3006 40.8645 41.6234 34.6568 41.6234 27C41.6234 19.3432 35.3006 13.1355 27.5021 13.1355ZM27.5021 36C22.4398 36 18.3354 31.9703 18.3354 27C18.3354 22.0297 22.4398 18 27.5021 18C32.5644 18 36.6688 22.0297 36.6688 27C36.6688 31.9703 32.5644 36 27.5021 36Z" fill="#372E24"/>
<path d="M42.1809 15.8259C44.0034 15.8259 45.4809 14.3753 45.4809 12.5859C45.4809 10.7965 44.0034 9.34595 42.1809 9.34595C40.3583 9.34595 38.8809 10.7965 38.8809 12.5859C38.8809 14.3753 40.3583 15.8259 42.1809 15.8259Z" fill="#372E24"/>
</svg>
