<svg width="43" height="43" viewBox="0 0 55 55" fill="none" xmlns="http://www.w3.org/2000/svg">
<path fill-rule="evenodd" clip-rule="evenodd" d="M27.5 0C12.3131 0 0 12.3131 0 27.5C0 42.6869 12.3131 55 27.5 55C42.6869 55 55 42.6869 55 27.5C55 12.3131 42.6869 0 27.5 0ZM40.2463 18.7023C39.8338 23.0496 38.0417 33.6027 37.1319 38.4725C36.7469 40.535 35.986 41.2248 35.2527 41.2913C33.6554 41.4379 32.4431 40.2348 30.8963 39.2219C28.4763 37.636 27.1081 36.6483 24.7592 35.0992C22.0435 33.3094 23.8035 32.3263 25.3504 30.7198C25.756 30.2981 32.7915 23.8975 32.929 23.3177C32.945 23.2444 32.9633 22.974 32.8006 22.8319C32.6379 22.6898 32.4019 22.7379 32.2323 22.7769C31.9894 22.8319 28.1233 25.3871 20.6319 30.4425C19.5342 31.1965 18.5396 31.5631 17.6481 31.5448C16.6673 31.5242 14.779 30.9902 13.3742 30.5319C11.6531 29.9727 10.2827 29.6748 10.4019 28.726C10.4638 28.231 11.1444 27.7246 12.446 27.2067C20.4623 23.7142 25.8088 21.411 28.4831 20.2973C36.1213 17.121 37.7071 16.5688 38.7429 16.5504C40.04 16.5321 40.3517 17.6023 40.2463 18.7023Z" fill="#4E8490"/>
</svg>
