<svg width="43" height="43" viewBox="0 0 55 53" fill="none" xmlns="http://www.w3.org/2000/svg">
<path fill-rule="evenodd" clip-rule="evenodd" d="M46.8946 7.70267C41.7475 2.73833 34.9046 0.00220833 27.6148 0C12.5929 0 0.366901 11.7793 0.360026 26.2615C0.357734 30.8902 1.61357 35.4084 3.99919 39.3922L0.130859 53L14.5775 49.3474C18.5582 51.4409 23.0407 52.5429 27.6011 52.5451H27.6125C42.6321 52.5451 54.8604 40.7636 54.8673 26.2814C54.8719 19.2655 52.0394 12.6648 46.8946 7.70267ZM27.6148 48.1085H27.6056C23.5402 48.1085 19.555 47.0552 16.0763 45.0655L15.249 44.5929L6.67586 46.7592L8.96523 38.7032L8.42669 37.8773C6.15794 34.4014 4.96169 30.3845 4.96398 26.2615C4.96857 14.2261 15.1321 4.43433 27.6263 4.43433C33.6763 4.43433 39.3642 6.70892 43.6404 10.8341C47.9167 14.9615 50.2702 20.4447 50.2679 26.277C50.2611 38.3168 40.0998 48.1085 27.6148 48.1085ZM40.0402 31.7602C39.3596 31.4312 36.0115 29.8434 35.3859 29.6248C34.7625 29.4062 34.3088 29.2957 33.8527 29.9516C33.3967 30.6075 32.095 32.0871 31.6963 32.5265C31.2998 32.9638 30.9011 33.019 30.2204 32.69C29.5398 32.3609 27.3444 31.6697 24.7434 29.4327C22.7198 27.6925 21.3517 25.5438 20.9552 24.8857C20.5588 24.2276 20.914 23.8743 21.2532 23.5475C21.5602 23.2537 21.9338 22.7812 22.2752 22.3969C22.619 22.0171 22.7313 21.7432 22.9604 21.3038C23.1873 20.8665 23.075 20.4823 22.9032 20.1532C22.7313 19.8264 21.37 16.5956 20.804 15.2817C20.2517 14.0008 19.6902 14.1753 19.2709 14.1554C18.8744 14.1355 18.4207 14.1333 17.9646 14.1333C17.5109 14.1333 16.7729 14.2967 16.1496 14.9548C15.5263 15.6129 13.7663 17.2007 13.7663 20.4293C13.7663 23.6601 16.2069 26.7805 16.5461 27.2177C16.8852 27.655 21.3471 34.2844 28.1786 37.1265C29.8034 37.8022 31.0729 38.2064 32.0607 38.5089C33.6923 39.008 35.1773 38.9373 36.3507 38.7695C37.6592 38.5818 40.3794 37.1817 40.9477 35.6491C41.5161 34.1165 41.5161 32.8004 41.3442 32.5287C41.1746 32.2527 40.7209 32.0893 40.0402 31.7602Z" fill="#5F904E"/>
</svg>
