<svg width="26" height="26" viewBox="0 0 26 26" fill="none" xmlns="http://www.w3.org/2000/svg">
<g clip-path="url(#clip0_362_922)">
<path d="M26.0012 12.1844C25.8445 9.64939 24.9495 7.21568 23.4264 5.18325C21.9032 3.15082 19.8186 1.60854 17.4296 0.746534C15.0405 -0.115472 12.4514 -0.259516 9.9815 0.332159C7.51156 0.923835 5.26876 2.22536 3.52959 4.07629C1.79041 5.92722 0.6309 8.24663 0.193993 10.7486C-0.242914 13.2505 0.0618856 15.8257 1.07082 18.1565C2.07974 20.4873 3.7487 22.4719 5.87192 23.8657C7.99515 25.2594 10.4798 26.0014 13.0196 26.0001H20.5846C22.0207 25.9987 23.3976 25.4275 24.4131 24.412C25.4286 23.3965 25.9998 22.0196 26.0012 20.5835V12.1844ZM23.8346 20.5835C23.8346 21.4454 23.4921 22.2721 22.8827 22.8816C22.2732 23.491 21.4465 23.8335 20.5846 23.8335H13.0196C11.491 23.8328 9.97964 23.5099 8.58414 22.8859C7.18865 22.2619 5.94035 21.3507 4.92064 20.2119C3.89599 19.0736 3.12656 17.7294 2.66394 16.2694C2.20132 14.8094 2.0562 13.2674 2.23831 11.7467C2.52586 9.34814 3.60351 7.11349 5.30137 5.39504C6.99922 3.67659 9.22072 2.57207 11.6156 2.25562C12.0828 2.19707 12.5531 2.1674 13.024 2.16679C15.5487 2.1599 17.9952 3.04202 19.9346 4.65845C21.0672 5.59981 21.9969 6.76137 22.6673 8.07272C23.3377 9.38407 23.7348 10.8179 23.8346 12.2873V20.5835Z" fill="black"/>
<path d="M8.66536 9.75016H12.9987C13.286 9.75016 13.5616 9.63603 13.7647 9.43286C13.9679 9.2297 14.082 8.95415 14.082 8.66683C14.082 8.37951 13.9679 8.10396 13.7647 7.9008C13.5616 7.69763 13.286 7.5835 12.9987 7.5835H8.66536C8.37805 7.5835 8.1025 7.69763 7.89933 7.9008C7.69617 8.10396 7.58203 8.37951 7.58203 8.66683C7.58203 8.95415 7.69617 9.2297 7.89933 9.43286C8.1025 9.63603 8.37805 9.75016 8.66536 9.75016Z" fill="black"/>
<path d="M17.332 11.9165H8.66536C8.37805 11.9165 8.1025 12.0306 7.89933 12.2338C7.69617 12.437 7.58203 12.7125 7.58203 12.9998C7.58203 13.2872 7.69617 13.5627 7.89933 13.7659C8.1025 13.969 8.37805 14.0832 8.66536 14.0832H17.332C17.6193 14.0832 17.8949 13.969 18.0981 13.7659C18.3012 13.5627 18.4154 13.2872 18.4154 12.9998C18.4154 12.7125 18.3012 12.437 18.0981 12.2338C17.8949 12.0306 17.6193 11.9165 17.332 11.9165Z" fill="black"/>
<path d="M17.332 16.25H8.66536C8.37805 16.25 8.1025 16.3641 7.89933 16.5673C7.69617 16.7705 7.58203 17.046 7.58203 17.3333C7.58203 17.6207 7.69617 17.8962 7.89933 18.0994C8.1025 18.3025 8.37805 18.4167 8.66536 18.4167H17.332C17.6193 18.4167 17.8949 18.3025 18.0981 18.0994C18.3012 17.8962 18.4154 17.6207 18.4154 17.3333C18.4154 17.046 18.3012 16.7705 18.0981 16.5673C17.8949 16.3641 17.6193 16.25 17.332 16.25Z" fill="black"/>
</g>
<defs>
<clipPath id="clip0_362_922">
<rect width="26" height="26" fill="white"/>
</clipPath>
</defs>
</svg>
