<svg width="26" height="26" viewBox="0 0 26 26" fill="none" xmlns="http://www.w3.org/2000/svg">
<g clip-path="url(#clip0_362_900)">
<path d="M18.4167 0H21.6667C22.8159 0 23.9181 0.456546 24.7308 1.2692C25.5435 2.08186 26 3.18406 26 4.33333V7.58333C26 8.7326 25.5435 9.83481 24.7308 10.6475C23.9181 11.4601 22.8159 11.9167 21.6667 11.9167H18.4167C17.2674 11.9167 16.1652 11.4601 15.3525 10.6475C14.5399 9.83481 14.0833 8.7326 14.0833 7.58333V4.33333C14.0833 3.18406 14.5399 2.08186 15.3525 1.2692C16.1652 0.456546 17.2674 0 18.4167 0V0ZM16.25 7.58333C16.25 8.15797 16.4783 8.70907 16.8846 9.1154C17.2909 9.52173 17.842 9.75 18.4167 9.75H21.6667C22.2413 9.75 22.7924 9.52173 23.1987 9.1154C23.6051 8.70907 23.8333 8.15797 23.8333 7.58333V4.33333C23.8333 3.7587 23.6051 3.2076 23.1987 2.80127C22.7924 2.39494 22.2413 2.16667 21.6667 2.16667H18.4167C17.842 2.16667 17.2909 2.39494 16.8846 2.80127C16.4783 3.2076 16.25 3.7587 16.25 4.33333V7.58333Z" fill="#372E24"/>
<path d="M4.33073 0H7.58073C8.73 0 9.8322 0.456546 10.6449 1.2692C11.4575 2.08186 11.9141 3.18406 11.9141 4.33333V7.58333C11.9141 8.7326 11.4575 9.83481 10.6449 10.6475C9.8322 11.4601 8.73 11.9167 7.58073 11.9167H4.33073C3.18146 11.9167 2.07926 11.4601 1.2666 10.6475C0.453942 9.83481 -0.00260448 8.7326 -0.00260448 7.58333V4.33333C-0.00260448 3.18406 0.453942 2.08186 1.2666 1.2692C2.07926 0.456546 3.18146 0 4.33073 0V0ZM2.16406 7.58333C2.16406 8.15797 2.39234 8.70907 2.79866 9.1154C3.20499 9.52173 3.75609 9.75 4.33073 9.75H7.58073C8.15536 9.75 8.70646 9.52173 9.11279 9.1154C9.51912 8.70907 9.7474 8.15797 9.7474 7.58333V4.33333C9.7474 3.7587 9.51912 3.2076 9.11279 2.80127C8.70646 2.39494 8.15536 2.16667 7.58073 2.16667H4.33073C3.75609 2.16667 3.20499 2.39494 2.79866 2.80127C2.39234 3.2076 2.16406 3.7587 2.16406 4.33333V7.58333Z" fill="#372E24"/>
<path d="M18.4167 14.0835H21.6667C22.8159 14.0835 23.9181 14.54 24.7308 15.3527C25.5435 16.1654 26 17.2676 26 18.4168V21.6668C26 22.8161 25.5435 23.9183 24.7308 24.731C23.9181 25.5436 22.8159 26.0002 21.6667 26.0002H18.4167C17.2674 26.0002 16.1652 25.5436 15.3525 24.731C14.5399 23.9183 14.0833 22.8161 14.0833 21.6668V18.4168C14.0833 17.2676 14.5399 16.1654 15.3525 15.3527C16.1652 14.54 17.2674 14.0835 18.4167 14.0835ZM16.25 21.6668C16.25 22.2415 16.4783 22.7926 16.8846 23.1989C17.2909 23.6052 17.842 23.8335 18.4167 23.8335H21.6667C22.2413 23.8335 22.7924 23.6052 23.1987 23.1989C23.6051 22.7926 23.8333 22.2415 23.8333 21.6668V18.4168C23.8333 17.8422 23.6051 17.2911 23.1987 16.8848C22.7924 16.4784 22.2413 16.2502 21.6667 16.2502H18.4167C17.842 16.2502 17.2909 16.4784 16.8846 16.8848C16.4783 17.2911 16.25 17.8422 16.25 18.4168V21.6668Z" fill="#372E24"/>
<path d="M4.33073 14.0835H7.58073C8.73 14.0835 9.8322 14.54 10.6449 15.3527C11.4575 16.1654 11.9141 17.2676 11.9141 18.4168V21.6668C11.9141 22.8161 11.4575 23.9183 10.6449 24.731C9.8322 25.5436 8.73 26.0002 7.58073 26.0002H4.33073C3.18146 26.0002 2.07926 25.5436 1.2666 24.731C0.453942 23.9183 -0.00260448 22.8161 -0.00260448 21.6668V18.4168C-0.00260448 17.2676 0.453942 16.1654 1.2666 15.3527C2.07926 14.54 3.18146 14.0835 4.33073 14.0835ZM2.16406 21.6668C2.16406 22.2415 2.39234 22.7926 2.79866 23.1989C3.20499 23.6052 3.75609 23.8335 4.33073 23.8335H7.58073C8.15536 23.8335 8.70646 23.6052 9.11279 23.1989C9.51912 22.7926 9.7474 22.2415 9.7474 21.6668V18.4168C9.7474 17.8422 9.51912 17.2911 9.11279 16.8848C8.70646 16.4784 8.15536 16.2502 7.58073 16.2502H4.33073C3.75609 16.2502 3.20499 16.4784 2.79866 16.8848C2.39234 17.2911 2.16406 17.8422 2.16406 18.4168V21.6668Z" fill="#372E24"/>
</g>
<defs>
<clipPath id="clip0_362_900">
<rect width="26" height="26" fill="white" transform="matrix(-1 0 0 1 26 0)"/>
</clipPath>
</defs>
</svg>
