<svg width="26" height="26" viewBox="0 0 26 26" fill="none" xmlns="http://www.w3.org/2000/svg">
<g clip-path="url(#clip0_362_895)">
<path d="M13 13C14.2856 13 15.5423 12.6188 16.6112 11.9046C17.6801 11.1903 18.5132 10.1752 19.0052 8.98745C19.4972 7.79973 19.6259 6.49279 19.3751 5.23192C19.1243 3.97104 18.5052 2.81285 17.5962 1.90381C16.6872 0.994768 15.529 0.375703 14.2681 0.124899C13.0072 -0.125905 11.7003 0.00281636 10.5126 0.494786C9.32484 0.986756 8.30968 1.81988 7.59545 2.8888C6.88122 3.95772 6.5 5.21442 6.5 6.5C6.50172 8.22338 7.18709 9.87568 8.40571 11.0943C9.62432 12.3129 11.2766 12.9983 13 13ZM13 2.16667C13.8571 2.16667 14.6949 2.42082 15.4075 2.89697C16.1201 3.37312 16.6755 4.0499 17.0035 4.84171C17.3315 5.63352 17.4173 6.50481 17.2501 7.34539C17.0829 8.18598 16.6702 8.95811 16.0641 9.56413C15.4581 10.1702 14.686 10.5829 13.8454 10.7501C13.0048 10.9173 12.1335 10.8315 11.3417 10.5035C10.5499 10.1755 9.87312 9.62009 9.39697 8.90747C8.92081 8.19486 8.66667 7.35706 8.66667 6.5C8.66667 5.35073 9.12321 4.24853 9.93587 3.43587C10.7485 2.62322 11.8507 2.16667 13 2.16667Z" fill="#372E24"/>
<path d="M13 15.1665C10.415 15.1694 7.93673 16.1975 6.10888 18.0254C4.28102 19.8532 3.25287 22.3315 3.25 24.9165C3.25 25.2038 3.36414 25.4794 3.5673 25.6825C3.77047 25.8857 4.04602 25.9998 4.33333 25.9998C4.62065 25.9998 4.8962 25.8857 5.09937 25.6825C5.30253 25.4794 5.41667 25.2038 5.41667 24.9165C5.41667 22.9053 6.21562 20.9764 7.63777 19.5543C9.05992 18.1321 10.9888 17.3332 13 17.3332C15.0112 17.3332 16.9401 18.1321 18.3622 19.5543C19.7844 20.9764 20.5833 22.9053 20.5833 24.9165C20.5833 25.2038 20.6975 25.4794 20.9006 25.6825C21.1038 25.8857 21.3793 25.9998 21.6667 25.9998C21.954 25.9998 22.2295 25.8857 22.4327 25.6825C22.6359 25.4794 22.75 25.2038 22.75 24.9165C22.7471 22.3315 21.719 19.8532 19.8911 18.0254C18.0633 16.1975 15.585 15.1694 13 15.1665Z" fill="#372E24"/>
</g>
<defs>
<clipPath id="clip0_362_895">
<rect width="26" height="26" fill="white"/>
</clipPath>
</defs>
</svg>
