<svg width="32" height="32" viewBox="0 0 40 40" fill="none" xmlns="http://www.w3.org/2000/svg">
<g clip-path="url(#clip0_50_688)">
<path d="M26.6664 26.6668C26.3539 26.9793 25.93 27.1548 25.4881 27.1548C25.0461 27.1548 24.6223 26.9793 24.3098 26.6668L19.9998 22.3568L15.6898 26.6668C15.3754 26.9704 14.9544 27.1384 14.5174 27.1346C14.0804 27.1308 13.6624 26.9555 13.3534 26.6465C13.0444 26.3375 12.8691 25.9195 12.8653 25.4825C12.8615 25.0455 13.0295 24.6245 13.3331 24.3101L17.6431 20.0001L13.3331 15.6901C13.0295 15.3758 12.8615 14.9548 12.8653 14.5178C12.8691 14.0808 13.0444 13.6628 13.3534 13.3538C13.6624 13.0448 14.0804 12.8695 14.5174 12.8657C14.9544 12.8619 15.3754 13.0299 15.6898 13.3335L19.9998 17.6435L24.3098 13.3335C24.6241 13.0299 25.0451 12.8619 25.4821 12.8657C25.9191 12.8695 26.3371 13.0448 26.6461 13.3538C26.9551 13.6628 27.1304 14.0808 27.1342 14.5178C27.138 14.9548 26.97 15.3758 26.6664 15.6901L22.3564 20.0001L26.6664 24.3101C26.9789 24.6227 27.1544 25.0465 27.1544 25.4885C27.1544 25.9304 26.9789 26.3543 26.6664 26.6668Z" fill="#372E24"/>
<path d="M20 40C16.0444 40 12.1776 38.827 8.8886 36.6294C5.59962 34.4318 3.03617 31.3082 1.52242 27.6537C0.00866572 23.9991 -0.387401 19.9778 0.384303 16.0982C1.15601 12.2186 3.06082 8.65491 5.85787 5.85786C8.65492 3.06081 12.2186 1.156 16.0982 0.384293C19.9778 -0.387409 23.9992 0.00865555 27.6537 1.52241C31.3082 3.03616 34.4318 5.59961 36.6294 8.88859C38.827 12.1776 40 16.0444 40 20C39.9943 25.3026 37.8853 30.3863 34.1358 34.1358C30.3863 37.8853 25.3026 39.9943 20 40V40ZM20 3.33333C16.7037 3.33333 13.4813 4.31082 10.7405 6.14217C7.99969 7.97353 5.86348 10.5765 4.60202 13.6219C3.34056 16.6674 3.0105 20.0185 3.65359 23.2515C4.29667 26.4845 5.88402 29.4542 8.2149 31.7851C10.5458 34.116 13.5155 35.7033 16.7485 36.3464C19.9815 36.9895 23.3326 36.6595 26.3781 35.398C29.4235 34.1365 32.0265 32.0003 33.8578 29.2595C35.6892 26.5187 36.6667 23.2964 36.6667 20C36.6618 15.5812 34.9043 11.3448 31.7798 8.22025C28.6552 5.09569 24.4188 3.33818 20 3.33333Z" fill="#372E24"/>
</g>
<defs>
<clipPath id="clip0_50_688">
<rect width="40" height="40" fill="white" transform="matrix(1 0 0 -1 0 40)"/>
</clipPath>
</defs>
</svg>
