<svg width="25" height="44" viewBox="0 0 25 44" fill="none" xmlns="http://www.w3.org/2000/svg">
<path d="M0.25 40.1674L0.25 3.83243C0.252695 3.18967 0.445924 2.56214 0.805253 2.0292C1.16458 1.49625 1.67388 1.08182 2.26873 0.83831C2.86359 0.594803 3.51729 0.53315 4.14718 0.661152C4.77707 0.789154 5.35487 1.10106 5.8075 1.55743L23.9425 19.6924C24.2471 19.9946 24.4889 20.354 24.6539 20.7501C24.8189 21.1461 24.9038 21.5709 24.9038 21.9999C24.9038 22.429 24.8189 22.8538 24.6539 23.2498C24.4889 23.6459 24.2471 24.0053 23.9425 24.3074L5.8075 42.4424C5.35487 42.8988 4.77707 43.2107 4.14718 43.3387C3.51729 43.4667 2.86359 43.4051 2.26873 43.1616C1.67388 42.918 1.16458 42.5036 0.805253 41.9707C0.445923 41.4377 0.252695 40.8102 0.25 40.1674Z" fill="#372E24"/>
</svg>
