<svg width="25" height="25" viewBox="0 0 25 25" fill="none" xmlns="http://www.w3.org/2000/svg">
<g clip-path="url(#clip0_350_2280)">
<path d="M17.8856 25.0001C17.7485 25.0009 17.6126 24.9746 17.4857 24.9228C17.3588 24.871 17.2434 24.7946 17.146 24.698L8.63561 16.1876C8.15058 15.7038 7.76576 15.1291 7.50319 14.4963C7.24062 13.8635 7.10547 13.1852 7.10547 12.5001C7.10547 11.815 7.24062 11.1367 7.50319 10.5039C7.76576 9.87117 8.15058 9.29642 8.63561 8.81261L17.146 0.302195C17.2432 0.205072 17.3585 0.128029 17.4854 0.0754662C17.6123 0.0229034 17.7483 -0.00415039 17.8856 -0.00415039C18.023 -0.00415039 18.159 0.0229034 18.2859 0.0754662C18.4128 0.128029 18.5281 0.205072 18.6252 0.302195C18.7223 0.399319 18.7994 0.514621 18.8519 0.641519C18.9045 0.768417 18.9315 0.904425 18.9315 1.04178C18.9315 1.17913 18.9045 1.31514 18.8519 1.44204C18.7994 1.56894 18.7223 1.68424 18.6252 1.78136L10.1148 10.2918C9.52957 10.8777 9.20086 11.672 9.20086 12.5001C9.20086 13.3282 9.52957 14.1225 10.1148 14.7084L18.6252 23.2189C18.7228 23.3157 18.8003 23.4309 18.8532 23.5578C18.9061 23.6848 18.9333 23.8209 18.9333 23.9584C18.9333 24.096 18.9061 24.2321 18.8532 24.359C18.8003 24.486 18.7228 24.6012 18.6252 24.698C18.5279 24.7946 18.4124 24.871 18.2855 24.9228C18.1586 24.9746 18.0227 25.0009 17.8856 25.0001Z" fill="black"/>
</g>
<defs>
<clipPath id="clip0_350_2280">
<rect width="25" height="25" fill="white"/>
</clipPath>
</defs>
</svg>
