<svg width="12" height="7" viewBox="0 0 12 7" fill="none" xmlns="http://www.w3.org/2000/svg">
<path d="M10.6584 6.5L1.34177 6.5C1.17696 6.49931 1.01606 6.44976 0.879406 6.35763C0.742753 6.26549 0.636488 6.1349 0.57405 5.98238C0.511612 5.82985 0.495804 5.66223 0.528626 5.50072C0.561446 5.33921 0.641422 5.19106 0.75844 5.075L5.40844 0.424999C5.48591 0.346892 5.57808 0.284897 5.67963 0.242589C5.78118 0.200283 5.8901 0.178501 6.00011 0.178501C6.11012 0.178501 6.21904 0.200283 6.32059 0.242589C6.42214 0.284897 6.51431 0.346892 6.59177 0.424999L11.2418 5.075C11.3588 5.19106 11.4388 5.33921 11.4716 5.50072C11.5044 5.66223 11.4886 5.82985 11.4262 5.98238C11.3637 6.1349 11.2575 6.26549 11.1208 6.35763C10.9842 6.44976 10.8233 6.49931 10.6584 6.5Z" fill="#E5A66E"/>
</svg>
