<svg width="43" height="43" viewBox="0 0 43 43" fill="none" xmlns="http://www.w3.org/2000/svg">
<path d="M40.0015 33.006C41.3059 34.8586 42.999 36.9997 42.999 38.5208C42.999 39.7087 42.5271 40.848 41.6871 41.688C40.8471 42.528 39.7078 43 38.5198 43C37.3319 43 36.1926 42.528 35.3526 41.688C34.5126 40.848 34.0406 39.7087 34.0406 38.5208C34.0406 37.1322 35.7624 34.9231 37.0721 33.0222C37.2362 32.7865 37.4546 32.5937 37.7087 32.4601C37.9629 32.3264 38.2455 32.2559 38.5327 32.2543C38.8198 32.2527 39.1031 32.3202 39.3588 32.451C39.6144 32.5818 39.8349 32.7722 40.0015 33.006ZM38.4302 24.8396L22.8929 40.377C21.2115 42.0543 18.9335 42.9963 16.5585 42.9963C14.1835 42.9963 11.9054 42.0543 10.224 40.377L2.62377 32.7749C0.943798 31.0949 0 28.8163 0 26.4405C0 24.0646 0.943798 21.786 2.62377 20.106L12.8524 9.87562L7.7354 4.69771C7.41042 4.35805 7.23196 3.90428 7.23848 3.43424C7.245 2.96421 7.43599 2.51556 7.77026 2.18505C8.10453 1.85454 8.55531 1.66864 9.02539 1.66744C9.49547 1.66624 9.94719 1.84983 10.2831 2.17862L15.3858 7.34579L18.1593 4.56871L16.6489 3.05833C16.3226 2.72042 16.142 2.26784 16.1461 1.79807C16.1502 1.3283 16.3386 0.878929 16.6708 0.54674C17.003 0.21455 17.4523 0.0261226 17.9221 0.0220404C18.3919 0.0179582 18.8444 0.198548 19.1824 0.524915L42.474 23.8166C42.6451 23.9819 42.7816 24.1796 42.8755 24.3981C42.9694 24.6167 43.0189 24.8518 43.0209 25.0897C43.023 25.3276 42.9777 25.5636 42.8876 25.7837C42.7975 26.0039 42.6645 26.204 42.4962 26.3722C42.328 26.5404 42.128 26.6735 41.9078 26.7636C41.6876 26.8536 41.4517 26.899 41.2138 26.8969C40.9759 26.8948 40.7408 26.8454 40.5222 26.7515C40.3036 26.6576 40.1059 26.5211 39.9406 26.35L38.4302 24.8396ZM35.8968 22.3062L20.6927 7.10212L17.9031 9.89354L26.3562 18.4541C26.5397 18.6171 26.6877 18.816 26.7911 19.0385C26.8946 19.261 26.9512 19.5024 26.9575 19.7477C26.9638 19.993 26.9197 20.237 26.8278 20.4645C26.7359 20.6921 26.5983 20.8983 26.4234 21.0705C26.2486 21.2426 26.0402 21.377 25.8113 21.4653C25.5823 21.5537 25.3377 21.594 25.0925 21.5839C24.8473 21.5737 24.6068 21.5134 24.386 21.4065C24.1651 21.2996 23.9685 21.1484 23.8084 20.9625L15.3715 12.4252L5.15898 22.6377C4.65977 23.1368 4.26377 23.7294 3.99359 24.3816C3.72342 25.0337 3.58436 25.7328 3.58436 26.4387C3.58436 27.1446 3.72342 27.8436 3.99359 28.4958C4.26377 29.148 4.65977 29.7406 5.15898 30.2397L12.7592 37.8417C13.7684 38.8478 15.1353 39.4127 16.5603 39.4127C17.9852 39.4127 19.3521 38.8478 20.3613 37.8417L35.8968 22.3062Z" fill="#372E24"/>
</svg>
