<svg width="78" height="78" viewBox="0 0 78 78" fill="none" xmlns="http://www.w3.org/2000/svg">
<path d="M29.25 57.1674L29.25 20.8324C29.2527 20.1897 29.4459 19.5621 29.8053 19.0292C30.1646 18.4963 30.6739 18.0818 31.2687 17.8383C31.8636 17.5948 32.5173 17.5331 33.1472 17.6612C33.7771 17.7892 34.3549 18.1011 34.8075 18.5574L52.9425 36.6924C53.2471 36.9946 53.4889 37.354 53.6539 37.7501C53.8189 38.1461 53.9038 38.5709 53.9038 38.9999C53.9038 39.429 53.8189 39.8538 53.6539 40.2498C53.4889 40.6459 53.2471 41.0053 52.9425 41.3074L34.8075 59.4424C34.3549 59.8988 33.7771 60.2107 33.1472 60.3387C32.5173 60.4667 31.8636 60.4051 31.2687 60.1616C30.6739 59.918 30.1646 59.5036 29.8053 58.9707C29.4459 58.4377 29.2527 57.8102 29.25 57.1674Z" fill="#372E24"/>
</svg>
