<svg width="78" height="78" viewBox="0 0 78 78" fill="none" xmlns="http://www.w3.org/2000/svg">
<path d="M48.75 20.8326L48.75 57.1676C48.7473 57.8103 48.5541 58.4379 48.1947 58.9708C47.8354 59.5037 47.3261 59.9182 46.7313 60.1617C46.1364 60.4052 45.4827 60.4669 44.8528 60.3388C44.2229 60.2108 43.6451 59.8989 43.1925 59.4426L25.0575 41.3076C24.7529 41.0054 24.5111 40.646 24.3461 40.2499C24.1811 39.8539 24.0962 39.4291 24.0962 39.0001C24.0962 38.571 24.1811 38.1462 24.3461 37.7502C24.5111 37.3541 24.7529 36.9947 25.0575 36.6926L43.1925 18.5576C43.6451 18.1012 44.2229 17.7893 44.8528 17.6613C45.4827 17.5333 46.1364 17.5949 46.7313 17.8384C47.3261 18.082 47.8354 18.4964 48.1947 19.0293C48.5541 19.5623 48.7473 20.1898 48.75 20.8326Z" fill="#372E24"/>
</svg>
