<svg width="78" height="78" viewBox="0 0 78 78" fill="none" xmlns="http://www.w3.org/2000/svg">
<path d="M20.834 29.25L57.169 29.25C57.8118 29.2527 58.4393 29.4459 58.9723 29.8053C59.5052 30.1646 59.9196 30.6739 60.1632 31.2687C60.4067 31.8636 60.4683 32.5173 60.3403 33.1472C60.2123 33.7771 59.9004 34.3549 59.444 34.8075L41.309 52.9425C41.0069 53.2471 40.6474 53.4889 40.2514 53.6539C39.8554 53.8189 39.4306 53.9038 39.0015 53.9038C38.5725 53.9038 38.1477 53.8189 37.7517 53.6539C37.3556 53.4889 36.9962 53.2471 36.694 52.9425L18.559 34.8075C18.1027 34.3549 17.7908 33.7771 17.6628 33.1472C17.5348 32.5173 17.5964 31.8636 17.8399 31.2687C18.0834 30.6739 18.4978 30.1646 19.0308 29.8053C19.5637 29.4459 20.1913 29.2527 20.834 29.25Z" fill="#372E24"/>
</svg>
