<svg width="44" height="25" viewBox="0 0 44 25" fill="none" xmlns="http://www.w3.org/2000/svg">
<path d="M40.1679 24.75L3.83292 24.75C3.19016 24.7473 2.56263 24.5541 2.02968 24.1947C1.49673 23.8354 1.0823 23.3261 0.838795 22.7313C0.595288 22.1364 0.533634 21.4827 0.661637 20.8528C0.789639 20.2229 1.10154 19.6451 1.55792 19.1925L19.6929 1.0575C19.9951 0.752882 20.3545 0.511101 20.7505 0.346102C21.1466 0.181105 21.5714 0.0961571 22.0004 0.0961571C22.4295 0.0961571 22.8543 0.181105 23.2503 0.346102C23.6463 0.511101 24.0058 0.752882 24.3079 1.0575L42.4429 19.1925C42.8993 19.6451 43.2112 20.2229 43.3392 20.8528C43.4672 21.4827 43.4056 22.1364 43.162 22.7313C42.9185 23.3261 42.5041 23.8354 41.9712 24.1947C41.4382 24.5541 40.8107 24.7473 40.1679 24.75Z" fill="#372E24"/>
</svg>
