<svg width="44" height="38" viewBox="0 0 44 38" fill="none" xmlns="http://www.w3.org/2000/svg">
<path d="M31.3628 0C29.3453 0.0313809 27.3718 0.59457 25.6416 1.63269C23.9114 2.67082 22.4858 4.14712 21.5087 5.9125C20.5316 4.14712 19.1059 2.67082 17.3757 1.63269C15.6455 0.59457 13.672 0.0313809 11.6545 0C8.43836 0.139733 5.40823 1.54666 3.22612 3.91342C1.04401 6.28017 -0.112713 9.41436 0.00867364 12.6313C0.00867364 20.778 8.58359 29.6754 15.7753 35.7079C17.3811 37.0573 19.4113 37.797 21.5087 37.797C23.6061 37.797 25.6363 37.0573 27.242 35.7079C34.4338 29.6754 43.0087 20.778 43.0087 12.6313C43.1301 9.41436 41.9733 6.28017 39.7912 3.91342C37.6091 1.54666 34.579 0.139733 31.3628 0ZM24.9397 32.9667C23.9794 33.7754 22.7642 34.2189 21.5087 34.2189C20.2532 34.2189 19.038 33.7754 18.0776 32.9667C8.87205 25.2428 3.59201 17.8325 3.59201 12.6313C3.46953 10.3643 4.24841 8.14085 5.75878 6.44588C7.26915 4.75091 9.38847 3.72192 11.6545 3.58333C13.9205 3.72192 16.0399 4.75091 17.5502 6.44588C19.0606 8.14085 19.8395 10.3643 19.717 12.6313C19.717 13.1064 19.9058 13.5621 20.2418 13.8982C20.5778 14.2342 21.0335 14.4229 21.5087 14.4229C21.9839 14.4229 22.4396 14.2342 22.7756 13.8982C23.1116 13.5621 23.3003 13.1064 23.3003 12.6313C23.1779 10.3643 23.9567 8.14085 25.4671 6.44588C26.9775 4.75091 29.0968 3.72192 31.3628 3.58333C33.6289 3.72192 35.7482 4.75091 37.2586 6.44588C38.7689 8.14085 39.5478 10.3643 39.4253 12.6313C39.4253 17.8325 34.1453 25.2428 24.9397 32.9595V32.9667Z" fill="#372E24"/>
</svg>
