<svg width="22" height="22" viewBox="0 0 31 29" fill="none" xmlns="http://www.w3.org/2000/svg">
<path d="M22.6026 0.556152C21.1481 0.579506 19.7254 0.998623 18.478 1.77118C17.2307 2.54374 16.2029 3.64238 15.4984 4.95615C14.794 3.64238 13.7662 2.54374 12.5189 1.77118C11.2715 0.998623 9.84876 0.579506 8.39427 0.556152C6.07566 0.66014 3.89114 1.70716 2.31799 3.46846C0.744843 5.22977 -0.0890705 7.56219 -0.00155941 9.95615C-0.00155941 16.0188 6.18036 22.6402 11.3651 27.1295C12.5227 28.1337 13.9864 28.6842 15.4984 28.6842C17.0105 28.6842 18.4742 28.1337 19.6318 27.1295C24.8165 22.6402 30.9984 16.0188 30.9984 9.95615C31.086 7.56219 30.252 5.22977 28.6789 3.46846C27.1057 1.70716 24.9212 0.66014 22.6026 0.556152ZM17.972 25.0895C17.2796 25.6913 16.4036 26.0214 15.4984 26.0214C14.5933 26.0214 13.7173 25.6913 13.0249 25.0895C6.38832 19.3415 2.58177 13.8268 2.58177 9.95615C2.49348 8.26911 3.055 6.61446 4.14387 5.35309C5.23274 4.09171 6.76062 3.32595 8.39427 3.22282C10.0279 3.32595 11.5558 4.09171 12.6447 5.35309C13.7336 6.61446 14.2951 8.26911 14.2068 9.95615C14.2068 10.3098 14.3429 10.6489 14.5851 10.899C14.8273 11.149 15.1559 11.2895 15.4984 11.2895C15.841 11.2895 16.1696 11.149 16.4118 10.899C16.654 10.6489 16.7901 10.3098 16.7901 9.95615C16.7018 8.26911 17.2633 6.61446 18.3522 5.35309C19.4411 4.09171 20.969 3.32595 22.6026 3.22282C24.2363 3.32595 25.7641 4.09171 26.853 5.35309C27.9419 6.61446 28.5034 8.26911 28.4151 9.95615C28.4151 13.8268 24.6086 19.3415 17.972 25.0842V25.0895Z" fill="#372E24"/>
</svg>
