<svg width="22" height="22" viewBox="0 0 31 32" fill="none" xmlns="http://www.w3.org/2000/svg">
<g clip-path="url(#clip0_176_65)">
<path d="M30.6238 29.7242L22.9139 21.7655C25.0149 19.113 26.0479 15.7283 25.7992 12.3116C25.5506 8.89491 24.0392 5.70757 21.5777 3.40889C19.1163 1.11021 15.8931 -0.123946 12.5749 -0.0383037C9.25668 0.0473387 6.09727 1.44623 3.7502 3.86902C1.40312 6.2918 0.0479499 9.55312 -0.0350162 12.9784C-0.117982 16.4037 1.07761 19.7308 3.30445 22.2716C5.5313 24.8125 8.61903 26.3726 11.929 26.6293C15.2389 26.886 18.5178 25.8197 21.0874 23.6509L28.7974 31.6095C29.041 31.8524 29.3673 31.9868 29.706 31.9838C30.0446 31.9807 30.3686 31.8405 30.6081 31.5933C30.8476 31.3461 30.9834 31.0117 30.9864 30.6621C30.9893 30.3125 30.8591 29.9757 30.6238 29.7242ZM12.9189 24.0002C10.8752 24.0002 8.87736 23.3746 7.17806 22.2025C5.47875 21.0305 4.1543 19.3646 3.37219 17.4155C2.59009 15.4664 2.38545 13.3217 2.78417 11.2526C3.18288 9.18344 4.16704 7.28282 5.61218 5.79106C7.05732 4.2993 8.89855 3.2834 10.903 2.87182C12.9075 2.46025 14.9852 2.67148 16.8733 3.47882C18.7615 4.28615 20.3754 5.65332 21.5108 7.40745C22.6462 9.16157 23.2523 11.2239 23.2523 13.3335C23.2492 16.1615 22.1595 18.8728 20.2223 20.8725C18.2851 22.8722 15.6586 23.997 12.9189 24.0002Z" fill="#372E24"/>
</g>
<defs>
<clipPath id="clip0_176_65">
<rect width="31" height="32" fill="white"/>
</clipPath>
</defs>
</svg>
