<svg width="43" height="43" viewBox="0 0 43 43" fill="none" xmlns="http://www.w3.org/2000/svg">
<g clip-path="url(#clip0_158_1403)">
<path d="M31.355 3.43457C29.3375 3.46595 27.364 4.02914 25.6338 5.06726C23.9036 6.10539 22.478 7.58169 21.5009 9.34707C20.5238 7.58169 19.0981 6.10539 17.3679 5.06726C15.6377 4.02914 13.6642 3.46595 11.6467 3.43457C8.43055 3.5743 5.40042 4.98123 3.21831 7.34799C1.03619 9.71474 -0.120525 12.8489 0.000861144 16.0658C0.000861144 24.2125 8.57578 33.1099 15.7675 39.1425C17.3733 40.4918 19.4035 41.2316 21.5009 41.2316C23.5983 41.2316 25.6285 40.4918 27.2342 39.1425C34.4259 33.1099 43.0009 24.2125 43.0009 16.0658C43.1222 12.8489 41.9655 9.71474 39.7834 7.34799C37.6013 4.98123 34.5712 3.5743 31.355 3.43457ZM24.9319 36.4012C23.9715 37.21 22.7564 37.6534 21.5009 37.6534C20.2453 37.6534 19.0302 37.21 18.0698 36.4012C8.86424 28.6774 3.58419 21.267 3.58419 16.0658C3.46172 13.7989 4.2406 11.5754 5.75097 9.88045C7.26134 8.18548 9.38066 7.15649 11.6467 7.0179C13.9127 7.15649 16.032 8.18548 17.5424 9.88045C19.0528 11.5754 19.8317 13.7989 19.7092 16.0658C19.7092 16.541 19.898 16.9967 20.234 17.3327C20.57 17.6687 21.0257 17.8575 21.5009 17.8575C21.976 17.8575 22.4318 17.6687 22.7678 17.3327C23.1038 16.9967 23.2925 16.541 23.2925 16.0658C23.1701 13.7989 23.9489 11.5754 25.4593 9.88045C26.9697 8.18548 29.089 7.15649 31.355 7.0179C33.6211 7.15649 35.7404 8.18548 37.2508 9.88045C38.7611 11.5754 39.54 13.7989 39.4175 16.0658C39.4175 21.267 34.1375 28.6774 24.9319 36.3941V36.4012Z" fill="#372E24"/>
</g>
<defs>
<clipPath id="clip0_158_1403">
<rect width="43" height="43" fill="white"/>
</clipPath>
</defs>
</svg>
