<svg width="20" height="20" viewBox="0 0 20 20" fill="none" xmlns="http://www.w3.org/2000/svg">
<g clip-path="url(#clip0_317_654)">
<path d="M5.41654 1.59741C6.35491 1.61201 7.27282 1.87396 8.07757 2.3568C8.88232 2.83965 9.54541 3.5263 9.99987 4.34741C10.4543 3.5263 11.1174 2.83965 11.9222 2.3568C12.7269 1.87396 13.6448 1.61201 14.5832 1.59741C16.0791 1.6624 17.4885 2.31679 18.5034 3.41761C19.5183 4.51842 20.0563 5.97618 19.9999 7.47241C19.9999 11.2616 16.0115 15.3999 12.6665 18.2057C11.9197 18.8334 10.9754 19.1774 9.99987 19.1774C9.02433 19.1774 8.08005 18.8334 7.33321 18.2057C3.98821 15.3999 -0.000127792 11.2616 -0.000127792 7.47241C-0.0565853 5.97618 0.481422 4.51842 1.49636 3.41761C2.51129 2.31679 3.92066 1.6624 5.41654 1.59741Z" fill="#372E24"/>
</g>
<defs>
<clipPath id="clip0_317_654">
<rect width="20" height="20" fill="white" transform="matrix(-1 0 0 1 20 0)"/>
</clipPath>
</defs>
</svg>
