<svg width="20" height="20" viewBox="0 0 20 20" fill="none" xmlns="http://www.w3.org/2000/svg">
<path d="M19.8598 7.40725C19.6893 6.84671 19.3487 6.35773 18.8883 6.01261C18.4279 5.66749 17.8723 5.48456 17.3035 5.49087H13.662L12.5559 1.93016C12.382 1.36968 12.0402 0.88073 11.5799 0.533829C11.1196 0.186928 10.5645 0 9.99465 0C9.42482 0 8.86972 0.186928 8.40939 0.533829C7.94905 0.88073 7.60728 1.36968 7.43335 1.93016L6.32732 5.49087H2.68582C2.11884 5.49171 1.56661 5.67759 1.10802 6.02197C0.649427 6.36635 0.307926 6.85161 0.132295 7.40845C-0.0433363 7.96528 -0.0441136 8.5652 0.130074 9.12251C0.304262 9.67983 0.644504 10.166 1.1022 10.5117L4.06607 12.75L2.9392 16.3547C2.7571 16.9137 2.75479 17.5186 2.93263 18.0791C3.11046 18.6397 3.45892 19.1258 3.92605 19.4651C4.38517 19.8153 4.94156 20.0029 5.5123 20C6.08303 19.997 6.63757 19.8037 7.09329 19.4488L9.99465 17.2431L12.8968 19.4462C13.3551 19.7944 13.9085 19.9835 14.4774 19.9864C15.0464 19.9892 15.6015 19.8057 16.0631 19.4621C16.5246 19.1185 16.8688 18.6326 17.0462 18.0743C17.2235 17.5159 17.2249 16.9139 17.0501 16.3547L15.9232 12.75L18.8904 10.5117C19.3534 10.1704 19.6976 9.68417 19.8722 9.12506C20.0468 8.56594 20.0424 7.96362 19.8598 7.40725ZM17.9069 9.12132L14.453 11.729C14.3111 11.8359 14.2055 11.9863 14.1514 12.1589C14.0972 12.3314 14.0971 12.5172 14.1512 12.6898L15.464 16.8824C15.5304 17.095 15.5298 17.324 15.4624 17.5363C15.3949 17.7486 15.264 17.9333 15.0884 18.0639C14.9129 18.1945 14.7018 18.2642 14.4855 18.2631C14.2691 18.2619 14.0587 18.19 13.8845 18.0575L10.4881 15.4748C10.345 15.3663 10.1721 15.3077 9.99465 15.3077C9.81715 15.3077 9.64428 15.3663 9.50123 15.4748L6.10478 18.0575C5.93065 18.1918 5.71965 18.2652 5.50239 18.2672C5.28512 18.2693 5.07287 18.1998 4.89641 18.0688C4.71996 17.9379 4.58846 17.7523 4.52099 17.539C4.45351 17.3257 4.45357 17.0957 4.52116 16.8824L5.83806 12.6898C5.89217 12.5172 5.89213 12.3314 5.83795 12.1589C5.78376 11.9863 5.67821 11.8359 5.53634 11.729L2.08238 9.12132C1.90844 8.98977 1.77919 8.8048 1.7131 8.59284C1.64701 8.38088 1.64746 8.15277 1.71438 7.9411C1.78131 7.72942 1.91129 7.545 2.08575 7.41418C2.26021 7.28337 2.47024 7.21284 2.68582 7.21269H6.93659C7.11306 7.21268 7.28496 7.15483 7.42756 7.04746C7.57015 6.94009 7.67607 6.78874 7.73007 6.61522L9.02197 2.45618C9.08829 2.24335 9.21827 2.05774 9.39321 1.92607C9.56815 1.7944 9.77902 1.72346 9.99548 1.72346C10.2119 1.72346 10.4228 1.7944 10.5978 1.92607C10.7727 2.05774 10.9027 2.24335 10.969 2.45618L12.2609 6.61522C12.3149 6.78874 12.4208 6.94009 12.5634 7.04746C12.706 7.15483 12.8779 7.21268 13.0544 7.21269H17.3051C17.5207 7.21284 17.7308 7.28337 17.9052 7.41418C18.0797 7.545 18.2097 7.72942 18.2766 7.9411C18.3435 8.15277 18.344 8.38088 18.2779 8.59284C18.2118 8.8048 18.0825 8.98977 17.9086 9.12132H17.9069Z" fill="#372E24"/>
</svg>
