<svg width="20" height="20" viewBox="0 0 20 20" fill="none" xmlns="http://www.w3.org/2000/svg">
<path d="M1.10648 10.3332L4.07315 12.4999L2.94648 15.989C2.76441 16.5302 2.7621 17.1157 2.93991 17.6583C3.11771 18.2009 3.4661 18.6714 3.93315 18.9999C4.39219 19.3389 4.94848 19.5205 5.51911 19.5176C6.08974 19.5148 6.64419 19.3276 7.09982 18.984L10.0006 16.849L12.9023 18.9815C13.3605 19.3186 13.9138 19.5017 14.4826 19.5044C15.0514 19.5072 15.6065 19.3295 16.068 18.997C16.5294 18.6644 16.8736 18.1941 17.0509 17.6536C17.2282 17.1131 17.2296 16.5304 17.0548 15.989L15.9282 12.4999L18.8948 10.3332C19.3524 9.99864 19.6926 9.528 19.8668 8.98854C20.0409 8.44907 20.0401 7.86837 19.8645 7.32937C19.6889 6.79037 19.3475 6.32065 18.889 5.9873C18.4305 5.65395 17.8784 5.47402 17.3115 5.47321H13.6673L12.5615 2.02655C12.3876 1.48401 12.0459 1.01073 11.5856 0.674935C11.1254 0.339144 10.5704 0.158203 10.0006 0.158203C9.43093 0.158203 8.87592 0.339144 8.41568 0.674935C7.95543 1.01073 7.61371 1.48401 7.43982 2.02655L6.33398 5.47321H2.69315C2.12627 5.47402 1.57414 5.65395 1.11563 5.9873C0.657122 6.32065 0.315683 6.79037 0.140084 7.32937C-0.0355159 7.86837 -0.0362931 8.44907 0.137863 8.98854C0.312019 9.528 0.6522 9.99864 1.10982 10.3332H1.10648Z" fill="#372E24"/>
</svg>
